<svg width="21" height="22" viewBox="0 0 21 22" fill="none" xmlns="http://www.w3.org/2000/svg">
<path d="M19.4239 20.6815C19.191 20.9144 18.9231 21.0425 18.6204 21.0658C18.3176 21.0425 18.0498 20.9144 17.8169 20.6815L10.5504 13.415L3.38877 20.5767C3.15587 20.8096 2.88803 20.9377 2.58526 20.961C2.28249 20.9377 2.01466 20.8096 1.78176 20.5767L0.663846 19.4588C0.430946 19.2259 0.314497 18.9697 0.314498 18.6902C0.314498 18.3641 0.430947 18.0847 0.663846 17.8518L7.82549 10.6901L0.768649 3.63328C0.53575 3.40038 0.419302 3.14419 0.419303 2.86471C0.419302 2.53865 0.53575 2.25917 0.768649 2.02627L1.99137 0.803552C2.22427 0.570652 2.4921 0.46585 2.79487 0.48914C3.09764 0.46585 3.36547 0.570653 3.59837 0.803552L10.6552 7.86039L17.8518 0.663812C18.0847 0.430914 18.3525 0.326112 18.6553 0.349401C18.9581 0.32611 19.2259 0.430914 19.4588 0.663813L20.5767 1.78173C20.8096 2.01463 20.9261 2.29411 20.9261 2.62017C20.9261 2.89964 20.8096 3.15583 20.5767 3.38873L13.3801 10.5853L20.6466 17.8518C20.8795 18.0847 20.9959 18.3641 20.9959 18.6902C20.9959 18.9697 20.8795 19.2259 20.6466 19.4588L19.4239 20.6815Z" fill="black"/>
</svg>
